<svg width="574" height="404" viewBox="0 0 574 404" fill="none" xmlns="http://www.w3.org/2000/svg">
<g clip-path="url(#clip0_205_2089)">
<path d="M172.066 65.6233C172.066 65.6233 233.615 112.331 327.185 24.9964C410.284 -52.5627 478.137 69.8084 478.61 128.411C479.225 204.322 395.512 265.062 436.138 314.922C476.763 364.782 355.569 447.118 290.252 375.862C208.998 287.222 186.987 359.243 140.673 359.243C107.433 359.243 39.1879 276.648 85.273 215.202C124.053 163.496 102.903 146.336 92.661 128.411C77.8864 102.557 112.973 32.3836 172.066 65.6233Z" fill="#DEE9FF"/>
<path d="M419.165 168.839C422.473 170.069 426.087 170.151 429.527 169.36C443.939 166.053 493.493 157.293 484.883 195.694C483.008 203.312 453.986 245.981 495.316 261.554C498.346 262.711 501.548 263.342 504.789 263.42C517.515 263.682 542.732 260.677 553.286 249.935C566.037 236.956 552.107 243.111 552.107 243.111C552.107 243.111 503.637 264.262 486.515 241.821C484.611 239.324 483.397 235.698 483.051 232.576C482.448 227.164 484.851 220.011 488.008 213.783C492.282 205.356 512.796 167.445 468.254 156.402C457.994 153.958 443.09 151.765 423.875 159.854C412.666 164.573 415.149 167.347 419.165 168.839Z" fill="#BDD6F9"/>
<path d="M429.082 154.686L416.181 159.516C411.729 161.182 409.47 166.143 411.136 170.596L411.776 172.305C413.443 176.758 418.404 179.017 422.856 177.351L435.759 172.523C440.212 170.856 442.471 165.895 440.804 161.44L440.164 159.733C438.498 155.278 433.537 153.019 429.082 154.686Z" fill="#0E84E5"/>
<path d="M349.891 168.659L307.345 184.583C305.117 185.415 303.987 187.896 304.822 190.122L304.99 190.571C305.822 192.797 308.303 193.927 310.531 193.095L353.077 177.17C355.305 176.336 356.435 173.855 355.6 171.629L355.432 171.18C354.6 168.954 352.119 167.824 349.891 168.659Z" fill="white"/>
<path d="M361.766 200.387L319.218 216.309C316.992 217.143 315.862 219.624 316.697 221.85L316.863 222.299C317.697 224.525 320.178 225.655 322.404 224.821L364.952 208.898C367.178 208.064 368.307 205.583 367.475 203.357L367.307 202.908C366.475 200.682 363.992 199.552 361.766 200.387Z" fill="white"/>
<path d="M401.048 147.007L366.565 159.911C362.111 161.578 359.852 166.541 361.518 170.994L373.293 202.451C374.96 206.903 379.921 209.163 384.374 207.496L418.859 194.591C423.311 192.924 425.57 187.963 423.904 183.509L412.131 152.052C410.464 147.599 405.503 145.34 401.048 147.007Z" fill="#5895F9"/>
<path d="M370.128 155.257L335.643 168.164C331.191 169.831 328.932 174.792 330.598 179.247L344.645 216.776C346.312 221.229 351.273 223.488 355.725 221.821L390.21 208.916C394.663 207.25 396.922 202.289 395.255 197.834L381.209 160.305C379.542 155.85 374.581 153.591 370.128 155.257Z" fill="#699CFF"/>
<path d="M375.526 147.642L375.255 147.742C372.287 148.854 370.78 152.162 371.891 155.131L391.569 207.707C392.68 210.675 395.987 212.182 398.955 211.071L399.226 210.969C402.196 209.857 403.701 206.551 402.59 203.582L382.914 151.006C381.803 148.038 378.494 146.531 375.526 147.642Z" fill="#208AF2"/>
<path d="M23.9031 181.256C23.9031 181.256 93.1585 161.793 83.1038 206.635C81.3577 213.73 56.2224 250.261 86.1622 267.8C92.591 271.566 100.01 273.235 107.46 273.196C120.818 273.126 141.994 270.556 151.508 260.873C164.257 247.895 150.329 254.049 150.329 254.049C150.329 254.049 110.554 270.41 90.0917 257.368C83.1047 252.915 79.9376 244.293 81.8349 236.226C82.8048 232.221 84.2814 228.354 86.2295 224.722C90.6796 216.386 111.018 178.384 66.4759 167.34C56.215 164.897 41.3119 162.703 22.0958 170.792C2.87978 178.884 23.9031 181.256 23.9031 181.256Z" fill="#BDD6F9"/>
<path d="M160.82 244.014L147.919 248.844C143.465 250.511 141.206 255.472 142.873 259.926L143.512 261.634C145.179 266.089 150.14 268.348 154.594 266.679L167.495 261.851C171.949 260.185 174.208 255.224 172.541 250.769L171.901 249.061C170.235 244.607 165.273 242.348 160.82 244.014Z" fill="#0E84E5"/>
<path d="M182.617 222.789L163.497 229.945C159.043 231.612 156.784 236.573 158.451 241.028L167.671 265.66C169.337 270.115 174.299 272.374 178.752 270.707L197.872 263.551C202.326 261.884 204.585 256.923 202.918 252.469L193.699 227.836C192.032 223.381 187.07 221.122 182.617 222.789Z" fill="#5895F9"/>
<path d="M214.447 203.822L185.934 214.495C181.481 216.161 179.222 221.122 180.888 225.577L194.934 263.106C196.601 267.561 201.563 269.82 206.016 268.153L234.529 257.481C238.984 255.815 241.243 250.854 239.576 246.399L225.529 208.87C223.863 204.415 218.902 202.156 214.447 203.822Z" fill="#699CFF"/>
<path d="M220.489 196.051L220.218 196.151C217.248 197.262 215.743 200.571 216.854 203.539L236.53 256.116C237.641 259.084 240.95 260.591 243.918 259.48L244.189 259.377C247.157 258.266 248.664 254.96 247.553 251.989L227.875 199.415C226.764 196.446 223.457 194.94 220.489 196.051Z" fill="#208AF2"/>
<path d="M293.298 162.556C292.271 162.441 291.328 161.935 290.668 161.139C290.01 160.344 289.684 159.325 289.76 158.294L291.888 119.434C292.015 117.113 293.975 115.349 296.199 115.554L299.298 115.841C301.523 116.047 303.116 118.137 302.804 120.443L297.576 159.015C297.458 160.042 296.945 160.983 296.148 161.643C295.35 162.304 294.329 162.629 293.298 162.556Z" fill="#418DF9"/>
<path d="M274.929 165.905C274.609 166 274.275 166.03 273.943 165.996C273.613 165.959 273.291 165.858 273 165.698C272.707 165.54 272.45 165.325 272.241 165.065C272.032 164.807 271.876 164.507 271.782 164.189L264.185 140.016C263.963 139.329 264.025 138.581 264.353 137.939C264.683 137.296 265.253 136.81 265.942 136.588L267.907 135.994C268.246 135.895 268.6 135.869 268.949 135.914C269.297 135.959 269.632 136.076 269.933 136.258C270.234 136.439 270.495 136.681 270.698 136.968C270.9 137.255 271.042 137.58 271.112 137.925L276.743 162.693C276.901 163.357 276.8 164.058 276.464 164.655C276.128 165.249 275.581 165.696 274.929 165.905Z" fill="#418DF9"/>
<path d="M264.676 179.846C263.315 181.533 260.576 181.512 258.469 179.801L221.054 149.401C218.818 147.585 218.16 144.579 219.603 142.792L221.616 140.299C223.061 138.509 226.026 138.657 228.141 140.621L263.545 173.515C265.539 175.366 266.038 178.161 264.676 179.846Z" fill="#418DF9"/>
<path d="M281.972 258.364C282.936 258.738 283.717 259.469 284.151 260.406C284.588 261.343 284.641 262.413 284.305 263.389L272.323 300.416C271.607 302.628 269.262 303.831 267.163 303.065L264.238 301.997C262.14 301.23 261.134 298.801 262.024 296.654L276.929 260.695C277.308 259.732 278.042 258.953 278.983 258.518C279.922 258.084 280.992 258.028 281.972 258.364Z" fill="#418DF9"/>
<path d="M300.588 259.818C300.92 259.808 301.252 259.865 301.564 259.984C301.873 260.103 302.158 260.281 302.4 260.511C302.642 260.739 302.837 261.013 302.972 261.317C303.107 261.62 303.183 261.948 303.191 262.282L304.364 287.593C304.401 288.315 304.153 289.02 303.669 289.557C303.187 290.097 302.511 290.42 301.791 290.459L299.737 290.531C299.384 290.539 299.036 290.476 298.71 290.343C298.384 290.209 298.091 290.01 297.845 289.758C297.601 289.506 297.41 289.207 297.287 288.877C297.166 288.547 297.113 288.196 297.131 287.846L298.013 262.463C298.031 261.778 298.308 261.126 298.784 260.636C299.261 260.146 299.905 259.855 300.588 259.818Z" fill="#418DF9"/>
<path d="M314.061 248.957C315.807 247.674 318.45 248.393 320.049 250.587L348.462 289.533C350.157 291.859 350.028 294.932 348.175 296.294L345.592 298.19C343.738 299.551 340.907 298.651 339.364 296.212L313.534 255.367C312.082 253.069 312.314 250.24 314.061 248.957Z" fill="#418DF9"/>
</g>
<defs>
<clipPath id="clip0_205_2089">
<rect width="574" height="403.677" fill="white"/>
</clipPath>
</defs>
</svg>
