<svg width="152" height="56" viewBox="0 0 152 56" fill="none" xmlns="http://www.w3.org/2000/svg">
<path fill-rule="evenodd" clip-rule="evenodd" d="M20.7887 10.7571H10.3944V20.4426H0V30.1281C10.363 27.9532 18.4482 20.4134 20.7887 10.7571Z" fill="#82ACFE" fill-opacity="0.502"/>
<path fill-rule="evenodd" clip-rule="evenodd" d="M31.177 30.1281V20.4426H20.7887V10.7571H10.3943C12.7285 20.4134 20.8201 27.9532 31.177 30.1281Z" fill="#1F6AFD" fill-opacity="0.502"/>
<path fill-rule="evenodd" clip-rule="evenodd" d="M31.177 20.4426V30.1282H20.7823V39.808H10.394C12.7285 30.1574 20.8201 22.6176 31.177 20.4426Z" fill="#0659FD" fill-opacity="0.502"/>
<path d="M51.1548 24.6378C51.098 24.0649 50.8542 23.6198 50.4233 23.3026C49.9924 22.9853 49.4077 22.8267 48.669 22.8267C48.1671 22.8267 47.7434 22.8977 47.3977 23.0398C47.0521 23.1771 46.7869 23.3688 46.6023 23.6151C46.4223 23.8613 46.3324 24.1406 46.3324 24.4531C46.3229 24.7135 46.3774 24.9408 46.4957 25.1349C46.6188 25.3291 46.7869 25.4972 47 25.6392C47.2131 25.7765 47.4593 25.8973 47.7386 26.0014C48.018 26.1009 48.3163 26.1861 48.6335 26.2571L49.9403 26.5696C50.5748 26.7116 51.1572 26.901 51.6875 27.1378C52.2178 27.3745 52.6771 27.6657 53.0653 28.0114C53.4536 28.357 53.7543 28.7642 53.9673 29.233C54.1851 29.7017 54.2964 30.2391 54.3011 30.8452C54.2964 31.7353 54.0691 32.5071 53.6193 33.1605C53.1742 33.8092 52.5303 34.3134 51.6875 34.6733C50.8494 35.0284 49.8385 35.206 48.6548 35.206C47.4806 35.206 46.4579 35.026 45.5866 34.6662C44.7202 34.3063 44.0431 33.7737 43.5554 33.0682C43.0724 32.358 42.8191 31.4796 42.7955 30.4332H45.7713C45.8045 30.9209 45.9441 31.3281 46.1903 31.6548C46.4413 31.9768 46.7751 32.2206 47.1918 32.3864C47.6132 32.5473 48.089 32.6278 48.6193 32.6278C49.1402 32.6278 49.5923 32.5521 49.9759 32.4006C50.3641 32.2491 50.6648 32.0384 50.8778 31.7685C51.0909 31.4986 51.1974 31.1884 51.1974 30.8381C51.1974 30.5114 51.1004 30.2367 50.9062 30.0142C50.7169 29.7917 50.4375 29.6023 50.0682 29.446C49.7036 29.2898 49.2562 29.1477 48.7259 29.0199L47.142 28.6222C45.9157 28.3239 44.9474 27.8575 44.2372 27.223C43.527 26.5885 43.1742 25.7339 43.179 24.6591C43.1742 23.7784 43.4086 23.009 43.8821 22.3509C44.3603 21.6927 45.0161 21.179 45.8494 20.8097C46.6828 20.4403 47.6297 20.2557 48.6903 20.2557C49.7699 20.2557 50.7121 20.4403 51.517 20.8097C52.3267 21.179 52.9564 21.6927 53.4062 22.3509C53.8561 23.009 54.0881 23.7713 54.1023 24.6378H51.1548ZM58.5447 35H55.2493L60.2706 20.4545H64.2337L69.2479 35H65.9524L62.3089 23.7784H62.1953L58.5447 35ZM58.3388 29.2827H66.1229V31.6832H58.3388V29.2827ZM79.983 20.4545H83.0582V29.9006C83.0582 30.9612 82.8049 31.8892 82.2983 32.6847C81.7964 33.4801 81.0933 34.1004 80.1889 34.5455C79.2846 34.9858 78.2311 35.206 77.0284 35.206C75.821 35.206 74.7652 34.9858 73.8608 34.5455C72.9564 34.1004 72.2533 33.4801 71.7514 32.6847C71.2495 31.8892 70.9986 30.9612 70.9986 29.9006V20.4545H74.0739V29.6378C74.0739 30.1918 74.1946 30.6842 74.4361 31.1151C74.6823 31.5459 75.0279 31.8845 75.473 32.1307C75.9181 32.3769 76.4366 32.5 77.0284 32.5C77.625 32.5 78.1435 32.3769 78.5838 32.1307C79.0289 31.8845 79.3722 31.5459 79.6136 31.1151C79.8598 30.6842 79.983 30.1918 79.983 29.6378V20.4545ZM75.9418 19.0483L77.4474 15.8168H80.2457L78.0795 19.0483H75.9418ZM90.7447 35H85.5884V20.4545H90.7873C92.2504 20.4545 93.5098 20.7457 94.5657 21.3281C95.6216 21.9058 96.4336 22.7367 97.0018 23.821C97.5747 24.9053 97.8612 26.2027 97.8612 27.7131C97.8612 29.2282 97.5747 30.5303 97.0018 31.6193C96.4336 32.7083 95.6168 33.544 94.5515 34.1264C93.4909 34.7088 92.2219 35 90.7447 35ZM88.6637 32.3651H90.6168C91.5259 32.3651 92.2906 32.2041 92.9109 31.8821C93.5359 31.5554 94.0046 31.0511 94.3171 30.3693C94.6344 29.6828 94.793 28.7973 94.793 27.7131C94.793 26.6383 94.6344 25.7599 94.3171 25.0781C94.0046 24.3963 93.5382 23.8944 92.918 23.5724C92.2977 23.2505 91.533 23.0895 90.6239 23.0895H88.6637V32.3651ZM100.139 35V20.4545H109.94V22.9901H103.214V26.456H109.436V28.9915H103.214V32.4645H109.969V35H100.139Z" fill="#0443BE"/>
<path d="M117.676 35.1989C116.616 35.1989 115.671 35.0166 114.843 34.652C114.019 34.2827 113.368 33.776 112.89 33.1321C112.416 32.4834 112.172 31.7353 112.158 30.8878H115.255C115.274 31.2429 115.39 31.5554 115.603 31.8253C115.82 32.0904 116.109 32.2964 116.469 32.4432C116.829 32.59 117.234 32.6634 117.684 32.6634C118.152 32.6634 118.567 32.5805 118.926 32.4148C119.286 32.2491 119.568 32.0194 119.772 31.7259C119.975 31.4323 120.077 31.0937 120.077 30.7102C120.077 30.322 119.968 29.9787 119.75 29.6804C119.537 29.3774 119.23 29.1406 118.827 28.9702C118.429 28.7997 117.956 28.7145 117.407 28.7145H116.05V26.456H117.407C117.871 26.456 118.28 26.3755 118.635 26.2145C118.995 26.0535 119.275 25.831 119.473 25.5469C119.672 25.258 119.772 24.9219 119.772 24.5384C119.772 24.1738 119.684 23.8542 119.509 23.5795C119.338 23.3002 119.097 23.0824 118.784 22.9261C118.477 22.7699 118.117 22.6918 117.705 22.6918C117.288 22.6918 116.907 22.7675 116.561 22.919C116.216 23.0658 115.939 23.2765 115.73 23.5511C115.522 23.8258 115.411 24.1477 115.397 24.517H112.449C112.463 23.679 112.703 22.9403 113.167 22.3011C113.631 21.6619 114.256 21.1624 115.042 20.8026C115.832 20.438 116.725 20.2557 117.719 20.2557C118.723 20.2557 119.601 20.438 120.354 20.8026C121.107 21.1671 121.692 21.6596 122.108 22.2798C122.53 22.8954 122.738 23.5866 122.733 24.3537C122.738 25.1681 122.485 25.8475 121.973 26.392C121.467 26.9366 120.806 27.2822 119.992 27.429V27.5426C121.062 27.6799 121.876 28.0516 122.435 28.6577C122.998 29.259 123.278 30.0118 123.273 30.9162C123.278 31.7448 123.039 32.4811 122.556 33.125C122.078 33.7689 121.417 34.2756 120.574 34.6449C119.731 35.0142 118.766 35.1989 117.676 35.1989ZM131.066 35.1989C130.318 35.1941 129.596 35.0687 128.9 34.8224C128.209 34.5762 127.588 34.1761 127.039 33.6222C126.49 33.0682 126.054 32.3343 125.732 31.4205C125.415 30.5066 125.256 29.3845 125.256 28.054C125.261 26.8324 125.401 25.741 125.675 24.7798C125.955 23.8139 126.353 22.9948 126.869 22.3224C127.389 21.6501 128.012 21.1387 128.737 20.7884C129.461 20.4332 130.273 20.2557 131.173 20.2557C132.143 20.2557 133 20.4451 133.744 20.8239C134.487 21.1979 135.084 21.7069 135.533 22.3509C135.988 22.9948 136.263 23.7169 136.357 24.517H133.325C133.206 24.0104 132.958 23.6127 132.579 23.3239C132.2 23.035 131.731 22.8906 131.173 22.8906C130.226 22.8906 129.506 23.3026 129.013 24.1264C128.526 24.9503 128.277 26.0701 128.268 27.4858H128.367C128.585 27.0549 128.879 26.688 129.248 26.3849C129.622 26.0772 130.046 25.8428 130.519 25.6818C130.997 25.5161 131.502 25.4332 132.032 25.4332C132.894 25.4332 133.661 25.6368 134.333 26.044C135.005 26.4465 135.536 27.0005 135.924 27.706C136.312 28.4115 136.506 29.2187 136.506 30.1278C136.506 31.1127 136.277 31.9886 135.817 32.7557C135.363 33.5227 134.726 34.1241 133.907 34.5597C133.093 34.9905 132.146 35.2036 131.066 35.1989ZM131.052 32.7841C131.525 32.7841 131.949 32.6705 132.323 32.4432C132.697 32.2159 132.991 31.9081 133.204 31.5199C133.417 31.1316 133.523 30.696 133.523 30.2131C133.523 29.7301 133.417 29.2969 133.204 28.9134C132.996 28.5298 132.707 28.2244 132.337 27.9972C131.968 27.7699 131.547 27.6562 131.073 27.6562C130.718 27.6562 130.389 27.7225 130.086 27.8551C129.788 27.9877 129.525 28.1723 129.298 28.4091C129.075 28.6458 128.9 28.9205 128.772 29.233C128.644 29.5407 128.58 29.8698 128.58 30.2202C128.58 30.6889 128.687 31.1174 128.9 31.5057C129.118 31.8939 129.411 32.2041 129.781 32.4361C130.155 32.6681 130.578 32.7841 131.052 32.7841ZM144.39 35.3196C143.168 35.3149 142.117 35.0142 141.237 34.4176C140.361 33.821 139.686 32.9569 139.212 31.8253C138.744 30.6937 138.512 29.3324 138.516 27.7415C138.516 26.1553 138.751 24.8035 139.219 23.6861C139.693 22.5687 140.368 21.7187 141.244 21.1364C142.124 20.5492 143.173 20.2557 144.39 20.2557C145.607 20.2557 146.653 20.5492 147.529 21.1364C148.41 21.7235 149.087 22.5758 149.56 23.6932C150.034 24.8059 150.268 26.1553 150.263 27.7415C150.263 29.3371 150.027 30.7008 149.553 31.8324C149.085 32.964 148.412 33.8281 147.536 34.4247C146.66 35.0213 145.612 35.3196 144.39 35.3196ZM144.39 32.7699C145.223 32.7699 145.888 32.3509 146.386 31.5128C146.883 30.6747 147.129 29.4176 147.124 27.7415C147.124 26.6383 147.011 25.7197 146.783 24.9858C146.561 24.2519 146.244 23.7003 145.832 23.331C145.424 22.9616 144.944 22.777 144.39 22.777C143.561 22.777 142.898 23.1913 142.401 24.0199C141.904 24.8485 141.653 26.089 141.648 27.7415C141.648 28.8589 141.76 29.7917 141.982 30.5398C142.21 31.2831 142.529 31.8419 142.941 32.2159C143.353 32.5852 143.836 32.7699 144.39 32.7699Z" fill="#82ACFE"/>
</svg>
