<svg width="216" height="40" viewBox="0 0 216 40" fill="none" xmlns="http://www.w3.org/2000/svg">
<path d="M17.3097 18.2756C17.196 17.1297 16.7083 16.2396 15.8466 15.6051C14.9848 14.9706 13.8153 14.6534 12.3381 14.6534C11.3343 14.6534 10.4867 14.7955 9.79545 15.0795C9.10417 15.3542 8.57386 15.7377 8.20455 16.2301C7.8447 16.7225 7.66477 17.2812 7.66477 17.9062C7.64583 18.4271 7.75473 18.8816 7.99148 19.2699C8.23769 19.6581 8.57386 19.9943 9 20.2784C9.42614 20.553 9.91856 20.7945 10.4773 21.0028C11.036 21.2017 11.6326 21.3722 12.267 21.5142L14.8807 22.1392C16.1496 22.4233 17.3144 22.8021 18.375 23.2756C19.4356 23.7491 20.3542 24.3314 21.1307 25.0227C21.9072 25.714 22.5085 26.5284 22.9347 27.4659C23.3703 28.4034 23.5928 29.4782 23.6023 30.6903C23.5928 32.4706 23.1383 34.0142 22.2386 35.321C21.3485 36.6184 20.0606 37.6269 18.375 38.3466C16.6989 39.0568 14.6771 39.4119 12.3097 39.4119C9.96117 39.4119 7.91572 39.0521 6.1733 38.3324C4.44034 37.6127 3.08617 36.5473 2.1108 35.1364C1.14489 33.7159 0.638258 31.9593 0.590909 29.8665H6.54261C6.6089 30.8419 6.88826 31.6562 7.38068 32.3097C7.88258 32.9536 8.55019 33.4413 9.38352 33.7727C10.2263 34.0947 11.178 34.2557 12.2386 34.2557C13.2803 34.2557 14.1847 34.1042 14.9517 33.8011C15.7282 33.4981 16.3295 33.0767 16.7557 32.5369C17.1818 31.9972 17.3949 31.3769 17.3949 30.6761C17.3949 30.0227 17.2008 29.4735 16.8125 29.0284C16.4337 28.5833 15.875 28.2045 15.1364 27.892C14.4072 27.5795 13.5123 27.2955 12.4517 27.0398L9.28409 26.2443C6.83144 25.6477 4.89489 24.715 3.47443 23.446C2.05398 22.1771 1.34848 20.4678 1.35795 18.3182C1.34848 16.5568 1.81723 15.018 2.7642 13.7017C3.72064 12.3854 5.0322 11.358 6.69886 10.6193C8.36553 9.88068 10.2595 9.51136 12.3807 9.51136C14.5398 9.51136 16.4242 9.88068 18.0341 10.6193C19.6534 11.358 20.9129 12.3854 21.8125 13.7017C22.7121 15.018 23.1761 16.5426 23.2045 18.2756H17.3097ZM32.0895 39H25.4986L35.5412 9.90909H43.4673L53.4957 39H46.9048L39.6179 16.5568H39.3906L32.0895 39ZM31.6776 27.5653H47.2457V32.3665H31.6776V27.5653ZM74.9659 9.90909H81.1165V28.8011C81.1165 30.9223 80.6098 32.7784 79.5966 34.3693C78.5928 35.9602 77.1866 37.2008 75.3778 38.0909C73.5691 38.9716 71.4621 39.4119 69.0568 39.4119C66.642 39.4119 64.5303 38.9716 62.7216 38.0909C60.9129 37.2008 59.5066 35.9602 58.5028 34.3693C57.4991 32.7784 56.9972 30.9223 56.9972 28.8011V9.90909H63.1477V28.2756C63.1477 29.3835 63.3892 30.3684 63.8722 31.2301C64.3646 32.0919 65.0559 32.7689 65.946 33.2614C66.8362 33.7538 67.8731 34 69.0568 34C70.25 34 71.2869 33.7538 72.1676 33.2614C73.0578 32.7689 73.7443 32.0919 74.2273 31.2301C74.7197 30.3684 74.9659 29.3835 74.9659 28.2756V9.90909ZM66.8835 7.09659L69.8949 0.633523H75.4915L71.1591 7.09659H66.8835ZM96.4893 39H86.1768V9.90909H96.5746C99.5007 9.90909 102.02 10.4915 104.131 11.6562C106.243 12.8116 107.867 14.4735 109.004 16.642C110.149 18.8106 110.722 21.4053 110.722 24.4261C110.722 27.4564 110.149 30.0606 109.004 32.2386C107.867 34.4167 106.234 36.0881 104.103 37.2528C101.982 38.4176 99.4439 39 96.4893 39ZM92.3274 33.7301H96.2337C98.0518 33.7301 99.5812 33.4081 100.822 32.7642C102.072 32.1108 103.009 31.1023 103.634 29.7386C104.269 28.3655 104.586 26.5947 104.586 24.4261C104.586 22.2765 104.269 20.5199 103.634 19.1562C103.009 17.7926 102.076 16.7888 100.836 16.1449C99.5954 15.5009 98.0661 15.179 96.2479 15.179H92.3274V33.7301ZM115.278 39V9.90909H134.881V14.9801H121.429V21.9119H133.872V26.983H121.429V33.929H134.938V39H115.278Z" fill="#0443BE"/>
<path d="M150.353 39.3977C148.232 39.3977 146.343 39.0331 144.685 38.304C143.038 37.5653 141.736 36.5521 140.779 35.2642C139.832 33.9669 139.344 32.4706 139.316 30.7756H145.509C145.547 31.4858 145.779 32.1108 146.205 32.6506C146.641 33.1809 147.219 33.5928 147.938 33.8864C148.658 34.1799 149.468 34.3267 150.367 34.3267C151.305 34.3267 152.133 34.161 152.853 33.8295C153.573 33.4981 154.136 33.0388 154.543 32.4517C154.951 31.8646 155.154 31.1875 155.154 30.4205C155.154 29.6439 154.936 28.9574 154.501 28.3608C154.075 27.7547 153.459 27.2812 152.654 26.9403C151.859 26.5994 150.912 26.429 149.813 26.429H147.1V21.9119H149.813C150.741 21.9119 151.56 21.7509 152.271 21.429C152.99 21.107 153.549 20.6619 153.947 20.0938C154.344 19.5161 154.543 18.8438 154.543 18.0767C154.543 17.3475 154.368 16.7083 154.018 16.1591C153.677 15.6004 153.194 15.1648 152.569 14.8523C151.953 14.5398 151.234 14.3835 150.41 14.3835C149.576 14.3835 148.814 14.535 148.123 14.8381C147.432 15.1316 146.878 15.553 146.461 16.1023C146.044 16.6515 145.822 17.2955 145.793 18.0341H139.898C139.927 16.358 140.405 14.8807 141.333 13.6023C142.261 12.3239 143.511 11.3248 145.083 10.6051C146.665 9.87595 148.45 9.51136 150.438 9.51136C152.446 9.51136 154.202 9.87595 155.708 10.6051C157.214 11.3343 158.383 12.3191 159.217 13.5597C160.059 14.7907 160.476 16.1733 160.467 17.7074C160.476 19.3362 159.969 20.6951 158.947 21.7841C157.933 22.8731 156.612 23.5644 154.984 23.858V24.0852C157.124 24.3598 158.753 25.1032 159.87 26.3153C160.997 27.518 161.556 29.0237 161.546 30.8324C161.556 32.4896 161.077 33.9621 160.112 35.25C159.155 36.5379 157.834 37.5511 156.148 38.2898C154.463 39.0284 152.531 39.3977 150.353 39.3977ZM177.132 39.3977C175.636 39.3883 174.192 39.1373 172.8 38.6449C171.417 38.1525 170.177 37.3523 169.078 36.2443C167.98 35.1364 167.108 33.6686 166.464 31.8409C165.83 30.0133 165.513 27.7689 165.513 25.108C165.522 22.6648 165.802 20.482 166.351 18.5597C166.91 16.6278 167.705 14.9896 168.737 13.6449C169.779 12.3002 171.024 11.2775 172.473 10.5767C173.922 9.86648 175.546 9.51136 177.345 9.51136C179.286 9.51136 181 9.89015 182.487 10.6477C183.974 11.3958 185.167 12.4138 186.067 13.7017C186.976 14.9896 187.525 16.4337 187.714 18.0341H181.649C181.412 17.0208 180.915 16.2254 180.158 15.6477C179.4 15.0701 178.463 14.7812 177.345 14.7812C175.451 14.7812 174.012 15.6051 173.027 17.2528C172.052 18.9006 171.554 21.1402 171.536 23.9716H171.734C172.17 23.1098 172.757 22.3759 173.496 21.7699C174.244 21.1544 175.091 20.6856 176.038 20.3636C176.995 20.0322 178.003 19.8665 179.064 19.8665C180.787 19.8665 182.321 20.2737 183.666 21.0881C185.011 21.893 186.071 23.0009 186.848 24.4119C187.625 25.8229 188.013 27.4375 188.013 29.2557C188.013 31.2254 187.554 32.9773 186.635 34.5114C185.726 36.0455 184.452 37.2481 182.814 38.1193C181.185 38.9811 179.291 39.4072 177.132 39.3977ZM177.104 34.5682C178.051 34.5682 178.898 34.3409 179.646 33.8864C180.394 33.4318 180.982 32.8163 181.408 32.0398C181.834 31.2633 182.047 30.392 182.047 29.4261C182.047 28.4602 181.834 27.5937 181.408 26.8267C180.991 26.0597 180.413 25.4489 179.675 24.9943C178.936 24.5398 178.093 24.3125 177.146 24.3125C176.436 24.3125 175.778 24.4451 175.172 24.7102C174.575 24.9754 174.05 25.3447 173.595 25.8182C173.15 26.2917 172.8 26.8409 172.544 27.4659C172.288 28.0814 172.161 28.7396 172.161 29.4403C172.161 30.3778 172.374 31.2348 172.8 32.0114C173.235 32.7879 173.822 33.4081 174.561 33.8722C175.309 34.3362 176.157 34.5682 177.104 34.5682ZM203.78 39.6392C201.337 39.6297 199.234 39.0284 197.473 37.8352C195.721 36.642 194.372 34.9138 193.425 32.6506C192.487 30.3873 192.023 27.6648 192.033 24.483C192.033 21.3106 192.501 18.607 193.439 16.3722C194.386 14.1373 195.735 12.4375 197.487 11.2727C199.249 10.0985 201.346 9.51136 203.78 9.51136C206.214 9.51136 208.306 10.0985 210.058 11.2727C211.82 12.447 213.174 14.1515 214.121 16.3864C215.068 18.6117 215.536 21.3106 215.527 24.483C215.527 27.6742 215.054 30.4015 214.107 32.6648C213.169 34.928 211.824 36.6562 210.072 37.8494C208.321 39.0426 206.223 39.6392 203.78 39.6392ZM203.78 34.5398C205.446 34.5398 206.777 33.7017 207.771 32.0256C208.766 30.3494 209.258 27.8352 209.249 24.483C209.249 22.2765 209.021 20.4394 208.567 18.9716C208.122 17.5038 207.487 16.4006 206.663 15.6619C205.849 14.9233 204.888 14.554 203.78 14.554C202.123 14.554 200.797 15.3826 199.803 17.0398C198.808 18.697 198.306 21.178 198.297 24.483C198.297 26.7178 198.519 28.5833 198.964 30.0795C199.419 31.5663 200.058 32.6837 200.882 33.4318C201.706 34.1705 202.672 34.5398 203.78 34.5398Z" fill="#82ACFE"/>
</svg>
