<svg width="44" height="36" viewBox="0 0 44 36" fill="none" xmlns="http://www.w3.org/2000/svg">
<path d="M35.8973 9.13583V17.3311C35.5274 17.2771 35.1485 17.2531 34.7643 17.2531C34.3653 17.2531 33.9719 17.2791 33.5883 17.3379V13.2519C33.5883 11.9325 32.8712 11.2441 31.5948 11.2441H11.6026C10.3262 11.2441 9.62344 11.9325 9.62344 13.2519V26.776C9.62344 28.1098 10.3262 28.7838 11.6026 28.7838H25.8114C26.0103 29.6062 26.3294 30.3816 26.7484 31.0929H11.8177C8.82032 31.0929 7.31445 29.6156 7.31445 26.6469V9.13583C7.31445 6.16713 8.82032 4.68994 11.8177 4.68994H31.4083C34.4057 4.68994 35.8973 6.18146 35.8973 9.13583Z" fill="#333333" fill-opacity="0.85"/>
<path d="M15.5608 24.2803V25.1265C15.5608 25.6285 15.4031 25.7862 14.8867 25.7862H14.0549C13.5386 25.7862 13.3809 25.6285 13.3809 25.1265V24.2803C13.3809 23.7784 13.5386 23.635 14.0549 23.635H14.8867C15.4031 23.635 15.5608 23.7784 15.5608 24.2803ZM20.3222 24.2803V25.1265C20.3222 25.6285 20.1645 25.7862 19.6625 25.7862H18.8163C18.3144 25.7862 18.1422 25.6285 18.1422 25.1265V24.2803C18.1422 23.7784 18.3144 23.635 18.8163 23.635H19.6625C20.1645 23.635 20.3222 23.7784 20.3222 24.2803ZM25.0979 24.2803V25.1265C25.0979 25.6285 24.9259 25.7862 24.424 25.7862H23.5778C23.0758 25.7862 22.9037 25.6285 22.9037 25.1265V24.2803C22.9037 23.7784 23.0758 23.635 23.5778 23.635H24.424C24.9259 23.635 25.0979 23.7784 25.0979 24.2803ZM15.5608 19.5906V20.4368C15.5608 20.9387 15.4031 21.0822 14.8867 21.0822H14.0549C13.5386 21.0822 13.3809 20.9387 13.3809 20.4368V19.5906C13.3809 19.0886 13.5386 18.9453 14.0549 18.9453H14.8867C15.4031 18.9453 15.5608 19.0886 15.5608 19.5906ZM20.3222 19.5906V20.4368C20.3222 20.9387 20.1645 21.0822 19.6625 21.0822H18.8163C18.3144 21.0822 18.1422 20.9387 18.1422 20.4368V19.5906C18.1422 19.0886 18.3144 18.9453 18.8163 18.9453H19.6625C20.1645 18.9453 20.3222 19.0886 20.3222 19.5906ZM25.0979 19.5906V20.4368C25.0979 20.9387 24.9259 21.0822 24.424 21.0822H23.5778C23.0758 21.0822 22.9037 20.9387 22.9037 20.4368V19.5906C22.9037 19.0886 23.0758 18.9453 23.5778 18.9453H24.424C24.9259 18.9453 25.0979 19.0886 25.0979 19.5906ZM20.3222 14.9009V15.7471C20.3222 16.2491 20.1645 16.3924 19.6625 16.3924H18.8163C18.3144 16.3924 18.1422 16.2491 18.1422 15.7471V14.9009C18.1422 14.399 18.3144 14.2412 18.8163 14.2412H19.6625C20.1645 14.2412 20.3222 14.399 20.3222 14.9009ZM25.0979 14.9009V15.7471C25.0979 16.2491 24.9259 16.3924 24.424 16.3924H23.5778C23.0758 16.3924 22.9037 16.2491 22.9037 15.7471V14.9009C22.9037 14.399 23.0758 14.2412 23.5778 14.2412H24.424C24.9259 14.2412 25.0979 14.399 25.0979 14.9009ZM29.8593 14.9009V15.7471C29.8593 16.2491 29.6872 16.3924 29.1852 16.3924H28.3392C27.8372 16.3924 27.6795 16.2491 27.6795 15.7471V14.9009C27.6795 14.399 27.8372 14.2412 28.3392 14.2412H29.1852C29.6872 14.2412 29.8593 14.399 29.8593 14.9009Z" fill="#333333" fill-opacity="0.85"/>
<path d="M42.0496 26.5034C42.0496 30.4903 38.708 33.7889 34.7641 33.7889C30.7629 33.7889 27.4785 30.5189 27.4785 26.5034C27.4785 22.5164 30.7629 19.2178 34.7641 19.2178C38.751 19.2178 42.0496 22.5021 42.0496 26.5034ZM33.5451 29.9453C33.5451 30.6194 34.1045 31.15 34.7641 31.15C35.4238 31.15 35.9688 30.6194 35.9688 29.9453C35.9688 29.2856 35.4382 28.7262 34.7641 28.7262C34.1045 28.7262 33.5451 29.2856 33.5451 29.9453ZM33.7745 22.8032L33.8893 26.9049C33.9036 27.3925 34.2622 27.7367 34.7641 27.7367C35.2661 27.7367 35.6102 27.3925 35.6246 26.9049L35.7537 22.8032C35.7681 22.2153 35.3664 21.8136 34.7641 21.8136C34.1617 21.8136 33.7602 22.2153 33.7745 22.8032Z" fill="#EB5757"/>
</svg>
