<svg width="44" height="36" viewBox="0 0 44 36" fill="none" xmlns="http://www.w3.org/2000/svg">
<path d="M35.9414 9.08544V17.2355C35.5735 17.1818 35.1967 17.158 34.8146 17.158C34.4178 17.158 34.0266 17.1838 33.6451 17.2422V13.1788C33.6451 11.8666 32.9319 11.182 31.6626 11.182H11.7806C10.5113 11.182 9.81239 11.8666 9.81239 13.1788V26.6283C9.81239 27.9548 10.5113 28.6251 11.7806 28.6251H25.9111C26.1088 29.443 26.4263 30.2141 26.8429 30.9214H11.9946C9.01369 30.9214 7.51611 29.4523 7.51611 26.5V9.08544C7.51611 6.1331 9.01369 4.66406 11.9946 4.66406H31.4771C34.4581 4.66406 35.9414 6.14736 35.9414 9.08544Z" fill="#333333" fill-opacity="0.85"/>
<path d="M15.7172 24.1464V24.9879C15.7172 25.4871 15.5603 25.6439 15.0468 25.6439H14.2197C13.7062 25.6439 13.5493 25.4871 13.5493 24.9879V24.1464C13.5493 23.6472 13.7062 23.5046 14.2197 23.5046H15.0468C15.5603 23.5046 15.7172 23.6472 15.7172 24.1464ZM20.4524 24.1464V24.9879C20.4524 25.4871 20.2955 25.6439 19.7963 25.6439H18.9548C18.4556 25.6439 18.2844 25.4871 18.2844 24.9879V24.1464C18.2844 23.6472 18.4556 23.5046 18.9548 23.5046H19.7963C20.2955 23.5046 20.4524 23.6472 20.4524 24.1464ZM25.2019 24.1464V24.9879C25.2019 25.4871 25.0307 25.6439 24.5315 25.6439H23.69C23.1908 25.6439 23.0196 25.4871 23.0196 24.9879V24.1464C23.0196 23.6472 23.1908 23.5046 23.69 23.5046H24.5315C25.0307 23.5046 25.2019 23.6472 25.2019 24.1464ZM15.7172 19.4825V20.324C15.7172 20.8232 15.5603 20.9659 15.0468 20.9659H14.2197C13.7062 20.9659 13.5493 20.8232 13.5493 20.324V19.4825C13.5493 18.9833 13.7062 18.8407 14.2197 18.8407H15.0468C15.5603 18.8407 15.7172 18.9833 15.7172 19.4825ZM20.4524 19.4825V20.324C20.4524 20.8232 20.2955 20.9659 19.7963 20.9659H18.9548C18.4556 20.9659 18.2844 20.8232 18.2844 20.324V19.4825C18.2844 18.9833 18.4556 18.8407 18.9548 18.8407H19.7963C20.2955 18.8407 20.4524 18.9833 20.4524 19.4825ZM25.2019 19.4825V20.324C25.2019 20.8232 25.0307 20.9659 24.5315 20.9659H23.69C23.1908 20.9659 23.0196 20.8232 23.0196 20.324V19.4825C23.0196 18.9833 23.1908 18.8407 23.69 18.8407H24.5315C25.0307 18.8407 25.2019 18.9833 25.2019 19.4825ZM20.4524 14.8187V15.6602C20.4524 16.1594 20.2955 16.302 19.7963 16.302H18.9548C18.4556 16.302 18.2844 16.1594 18.2844 15.6602V14.8187C18.2844 14.3195 18.4556 14.1626 18.9548 14.1626H19.7963C20.2955 14.1626 20.4524 14.3195 20.4524 14.8187ZM25.2019 14.8187V15.6602C25.2019 16.1594 25.0307 16.302 24.5315 16.302H23.69C23.1908 16.302 23.0196 16.1594 23.0196 15.6602V14.8187C23.0196 14.3195 23.1908 14.1626 23.69 14.1626H24.5315C25.0307 14.1626 25.2019 14.3195 25.2019 14.8187ZM29.9369 14.8187V15.6602C29.9369 16.1594 29.7659 16.302 29.2667 16.302H28.4252C27.926 16.302 27.7691 16.1594 27.7691 15.6602V14.8187C27.7691 14.3195 27.926 14.1626 28.4252 14.1626H29.2667C29.7659 14.1626 29.9369 14.3195 29.9369 14.8187Z" fill="#333333" fill-opacity="0.85"/>
<path d="M42.06 26.3573C42.06 30.3222 38.7368 33.6026 34.8146 33.6026C30.8354 33.6026 27.5693 30.3507 27.5693 26.3573C27.5693 22.3922 30.8354 19.1118 34.8146 19.1118C38.7796 19.1118 42.06 22.378 42.06 26.3573ZM37.3819 23.1482L33.9018 27.9689L32.1475 26.072C32.005 25.915 31.7767 25.7725 31.4772 25.7725C30.978 25.7725 30.5787 26.1576 30.5787 26.671C30.5787 26.8706 30.6499 27.1274 30.8211 27.3129L33.2315 29.9657C33.417 30.1653 33.7022 30.2652 33.9446 30.2652C34.2584 30.2652 34.5436 30.1369 34.7006 29.9229L38.8367 24.175C38.9651 23.9897 39.0363 23.79 39.0363 23.633C39.0363 23.1338 38.6084 22.7489 38.1378 22.7489C37.8098 22.7489 37.5531 22.92 37.3819 23.1482Z" fill="#27AE60"/>
</svg>
