<?xml version="1.0" encoding="utf-8"?>
<!-- Generator: Adobe Illustrator 28.0.0, SVG Export Plug-In . SVG Version: 6.00 Build 0)  -->
<svg version="1.1" id="Camada_1" xmlns="http://www.w3.org/2000/svg" xmlns:xlink="http://www.w3.org/1999/xlink" x="0px" y="0px"
	 viewBox="0 0 20 18" style="enable-background:new 0 0 20 18;" xml:space="preserve">
<path d="M3.3,18h13.3c2,0,3.1-1,3.1-3V3c0-2-1-3-3.1-3H3.3c-2,0-3.1,1-3.1,3V15C0.3,17,1.3,18,3.3,18L3.3,18z M3.2,16.4
	c-0.9,0-1.3-0.5-1.3-1.4V5.8c0-0.9,0.5-1.4,1.3-1.4h13.6c0.9,0,1.4,0.5,1.4,1.4v9.2c0,0.9-0.5,1.4-1.4,1.4H3.2z M8.1,8h0.6
	C9,8,9.1,7.9,9.1,7.5V7c0-0.3-0.1-0.4-0.4-0.4H8.1C7.8,6.5,7.6,6.6,7.6,7v0.6C7.6,7.9,7.8,8,8.1,8z M11.3,8h0.6
	c0.3,0,0.5-0.1,0.5-0.4V7c0-0.3-0.1-0.4-0.5-0.4h-0.6c-0.3,0-0.5,0.1-0.5,0.4v0.6C10.9,7.9,11,8,11.3,8L11.3,8z M14.6,8h0.6
	c0.3,0,0.5-0.1,0.5-0.4V7c0-0.3-0.1-0.4-0.5-0.4h-0.6c-0.3,0-0.4,0.1-0.4,0.4v0.6C14.1,7.9,14.2,8,14.6,8L14.6,8z M4.9,11.2h0.6
	c0.4,0,0.5-0.1,0.5-0.4v-0.6c0-0.3-0.1-0.4-0.5-0.4H4.9c-0.4,0-0.5,0.1-0.5,0.4v0.6C4.4,11.1,4.5,11.2,4.9,11.2L4.9,11.2z M8.1,11.2
	h0.6c0.3,0,0.4-0.1,0.4-0.4v-0.6c0-0.3-0.1-0.4-0.4-0.4H8.1c-0.3,0-0.5,0.1-0.5,0.4v0.6C7.6,11.1,7.8,11.2,8.1,11.2L8.1,11.2z
	 M11.3,11.2h0.6c0.3,0,0.5-0.1,0.5-0.4v-0.6c0-0.3-0.1-0.4-0.5-0.4h-0.6c-0.3,0-0.5,0.1-0.5,0.4v0.6C10.9,11.1,11,11.2,11.3,11.2
	L11.3,11.2z M14.6,11.2h0.6c0.3,0,0.5-0.1,0.5-0.4v-0.6c0-0.3-0.1-0.4-0.5-0.4h-0.6c-0.3,0-0.4,0.1-0.4,0.4v0.6
	C14.1,11.1,14.2,11.2,14.6,11.2L14.6,11.2z M4.9,14.4h0.6c0.4,0,0.5-0.1,0.5-0.4v-0.6c0-0.3-0.1-0.4-0.5-0.4H4.9
	c-0.4,0-0.5,0.1-0.5,0.4v0.6C4.4,14.3,4.5,14.4,4.9,14.4L4.9,14.4z M8.1,14.4h0.6c0.3,0,0.4-0.1,0.4-0.4v-0.6c0-0.3-0.1-0.4-0.4-0.4
	H8.1c-0.3,0-0.5,0.1-0.5,0.4v0.6C7.6,14.3,7.8,14.4,8.1,14.4L8.1,14.4z M11.3,14.4h0.6c0.3,0,0.5-0.1,0.5-0.4v-0.6
	c0-0.3-0.1-0.4-0.5-0.4h-0.6c-0.3,0-0.5,0.1-0.5,0.4v0.6C10.9,14.3,11,14.4,11.3,14.4L11.3,14.4z"/>
</svg>
