<svg width="20" height="18" viewBox="0 0 20 18" fill="none" xmlns="http://www.w3.org/2000/svg">
<g clip-path="url(#clip0_266_1522)">
<path d="M3.06576 17.9942H16.4027C18.4434 17.9942 19.4588 16.9788 19.4588 14.9675V3.04624C19.4588 1.03494 18.4434 0.0195312 16.4027 0.0195312H3.06576C1.02517 0.0195312 0 1.02518 0 3.04624V14.9675C0 16.9886 1.02517 17.9942 3.06576 17.9942ZM2.9193 16.4223C2.05035 16.4223 1.57194 15.9634 1.57194 15.0554V5.84837C1.57194 4.95012 2.05035 4.48147 2.9193 4.48147H16.5297C17.3986 4.48147 17.8868 4.95012 17.8868 5.84837V15.0554C17.8868 15.9634 17.3986 16.4223 16.5297 16.4223H2.9193ZM7.83037 7.98659H8.40642C8.74815 7.98659 8.85554 7.88895 8.85554 7.54724V6.97119C8.85554 6.62946 8.74815 6.52206 8.40642 6.52206H7.83037C7.48864 6.52206 7.37149 6.62946 7.37149 6.97119V7.54724C7.37149 7.88895 7.48864 7.98659 7.83037 7.98659ZM11.0719 7.98659H11.6479C11.9897 7.98659 12.1068 7.88895 12.1068 7.54724V6.97119C12.1068 6.62946 11.9897 6.52206 11.6479 6.52206H11.0719C10.7301 6.52206 10.613 6.62946 10.613 6.97119V7.54724C10.613 7.88895 10.7301 7.98659 11.0719 7.98659ZM14.3134 7.98659H14.8894C15.2312 7.98659 15.3483 7.88895 15.3483 7.54724V6.97119C15.3483 6.62946 15.2312 6.52206 14.8894 6.52206H14.3134C13.9716 6.52206 13.8643 6.62946 13.8643 6.97119V7.54724C13.8643 7.88895 13.9716 7.98659 14.3134 7.98659ZM4.58887 11.1792H5.15516C5.50664 11.1792 5.61404 11.0817 5.61404 10.7399V10.1638C5.61404 9.82214 5.50664 9.7245 5.15516 9.7245H4.58887C4.23738 9.7245 4.12998 9.82214 4.12998 10.1638V10.7399C4.12998 11.0817 4.23738 11.1792 4.58887 11.1792ZM7.83037 11.1792H8.40642C8.74815 11.1792 8.85554 11.0817 8.85554 10.7399V10.1638C8.85554 9.82214 8.74815 9.7245 8.40642 9.7245H7.83037C7.48864 9.7245 7.37149 9.82214 7.37149 10.1638V10.7399C7.37149 11.0817 7.48864 11.1792 7.83037 11.1792ZM11.0719 11.1792H11.6479C11.9897 11.1792 12.1068 11.0817 12.1068 10.7399V10.1638C12.1068 9.82214 11.9897 9.7245 11.6479 9.7245H11.0719C10.7301 9.7245 10.613 9.82214 10.613 10.1638V10.7399C10.613 11.0817 10.7301 11.1792 11.0719 11.1792ZM14.3134 11.1792H14.8894C15.2312 11.1792 15.3483 11.0817 15.3483 10.7399V10.1638C15.3483 9.82214 15.2312 9.7245 14.8894 9.7245H14.3134C13.9716 9.7245 13.8643 9.82214 13.8643 10.1638V10.7399C13.8643 11.0817 13.9716 11.1792 14.3134 11.1792ZM4.58887 14.3818H5.15516C5.50664 14.3818 5.61404 14.2743 5.61404 13.9326V13.3566C5.61404 13.0148 5.50664 12.9172 5.15516 12.9172H4.58887C4.23738 12.9172 4.12998 13.0148 4.12998 13.3566V13.9326C4.12998 14.2743 4.23738 14.3818 4.58887 14.3818ZM7.83037 14.3818H8.40642C8.74815 14.3818 8.85554 14.2743 8.85554 13.9326V13.3566C8.85554 13.0148 8.74815 12.9172 8.40642 12.9172H7.83037C7.48864 12.9172 7.37149 13.0148 7.37149 13.3566V13.9326C7.37149 14.2743 7.48864 14.3818 7.83037 14.3818ZM11.0719 14.3818H11.6479C11.9897 14.3818 12.1068 14.2743 12.1068 13.9326V13.3566C12.1068 13.0148 11.9897 12.9172 11.6479 12.9172H11.0719C10.7301 12.9172 10.613 13.0148 10.613 13.3566V13.9326C10.613 14.2743 10.7301 14.3818 11.0719 14.3818Z" fill="white"/>
</g>
<defs>
<clipPath id="clip0_266_1522">
<rect width="19.82" height="17.9942" fill="white"/>
</clipPath>
</defs>
</svg>
