<?xml version="1.0" standalone="no"?>
<!DOCTYPE svg PUBLIC "-//W3C//DTD SVG 20010904//EN"
 "http://www.w3.org/TR/2001/REC-SVG-20010904/DTD/svg10.dtd">
<svg version="1.0" xmlns="http://www.w3.org/2000/svg"
 width="85.000000pt" height="79.000000pt" viewBox="0 0 85.000000 79.000000"
 preserveAspectRatio="xMidYMid meet">

<g transform="translate(0.000000,79.000000) scale(0.100000,-0.100000)" stroke="none">
<path d="M400 767 c-14 -7 -29 -22 -35 -34 -5 -13 -20 -23 -35 -25 -22 -3 -25
-8 -28 -45 -4 -52 3 -55 143 -51 l100 3 0 45 c0 39 -3 45 -23 48 -13 2 -28 14
-34 27 -5 12 -21 28 -35 34 -29 13 -23 13 -53 -2z m50 -57 c0 -24 -26 -38 -42
-22 -16 16 -2 42 22 42 13 0 20 -7 20 -20z"/>
<path d="M214 680 c-52 -21 -54 -33 -54 -333 0 -172 4 -286 10 -298 23 -42 58
-49 254 -49 102 0 196 4 210 10 14 5 35 24 46 42 19 31 20 51 20 289 0 162 -4
268 -11 288 -11 31 -52 61 -84 61 -25 0 -18 -46 10 -64 l25 -16 0 -263 c0
-191 -3 -266 -12 -275 -8 -8 -67 -12 -199 -12 -157 0 -190 3 -203 16 -14 13
-16 52 -16 274 l0 260 25 16 c15 10 25 26 25 40 0 25 -11 28 -46 14z"/>
<path d="M277 474 c-4 -4 -7 -13 -7 -21 0 -11 30 -13 158 -11 132 3 157 5 157
18 0 13 -25 15 -151 18 -82 1 -153 -1 -157 -4z"/>
<path d="M274 355 c-12 -30 7 -35 150 -35 107 0 146 3 155 13 24 29 -9 37
-156 37 -116 0 -145 -3 -149 -15z"/>
<path d="M277 243 c-4 -3 -7 -12 -7 -20 0 -10 21 -13 84 -13 83 0 115 12 85
31 -16 10 -153 12 -162 2z"/>
</g>
</svg>
