<?xml version="1.0" standalone="no"?>
<!DOCTYPE svg PUBLIC "-//W3C//DTD SVG 20010904//EN"
 "http://www.w3.org/TR/2001/REC-SVG-20010904/DTD/svg10.dtd">
<svg version="1.0" xmlns="http://www.w3.org/2000/svg"
 width="85.000000pt" height="79.000000pt" viewBox="0 0 85.000000 79.000000"
 preserveAspectRatio="xMidYMid meet">

<g transform="translate(0.000000,79.000000) scale(0.100000,-0.100000)" stroke="none">
<path d="M342 758 c-5 -7 -15 -32 -22 -56 l-11 -43 -35 20 c-53 31 -84 27
-127 -17 -42 -43 -46 -72 -17 -117 26 -40 26 -42 -12 -50 -67 -14 -78 -29 -78
-100 0 -71 11 -86 77 -100 39 -8 39 -10 13 -50 -32 -48 -26 -77 25 -124 24
-22 50 -41 56 -41 7 0 32 11 56 25 23 14 43 25 44 23 0 -2 6 -23 12 -48 14
-51 40 -70 102 -70 55 0 80 20 94 75 l11 46 44 -26 c23 -14 48 -25 55 -25 6 0
32 19 56 41 51 47 56 71 25 121 -11 18 -20 36 -20 39 0 4 20 12 44 18 57 14
69 31 68 97 0 65 -11 81 -68 95 -24 6 -44 14 -44 18 0 3 9 20 20 36 30 45 25
76 -18 118 -44 43 -78 47 -128 17 l-33 -21 -11 43 c-17 63 -24 68 -100 68 -42
0 -71 -5 -78 -12z m125 -89 c11 -36 20 -50 42 -59 26 -10 35 -9 74 14 l44 26
23 -25 24 -26 -23 -43 c-34 -62 -21 -96 43 -114 46 -13 47 -14 44 -50 -3 -34
-6 -37 -47 -47 -34 -8 -46 -17 -55 -40 -11 -27 -10 -34 11 -67 28 -46 28 -46
1 -75 l-21 -23 -44 26 c-39 23 -48 24 -74 14 -22 -9 -31 -23 -42 -59 -12 -43
-15 -46 -49 -49 -35 -3 -36 -3 -48 47 -10 42 -17 51 -42 60 -25 9 -36 7 -72
-14 l-43 -25 -23 25 -24 26 23 43 c34 61 21 96 -40 111 -43 11 -44 12 -44 50
0 37 1 39 44 49 61 15 74 51 40 112 l-23 43 24 26 23 25 43 -25 c36 -21 47
-23 72 -14 23 8 33 19 38 42 12 56 22 68 57 65 28 -3 33 -8 44 -49z"/>
<path d="M364 520 c-30 -12 -71 -64 -79 -100 -9 -41 9 -91 46 -126 26 -25 38
-29 89 -29 51 0 63 4 90 30 109 105 -5 282 -146 225z m113 -76 c20 -20 24 -31
19 -57 -9 -46 -33 -67 -77 -67 -70 0 -103 77 -54 125 32 33 78 33 112 -1z"/>
</g>
</svg>
