<svg width="16" height="16" viewBox="0 0 16 16" fill="none" xmlns="http://www.w3.org/2000/svg">
<path d="M2.66667 12.4444C2.66667 10.6667 6.22222 9.68889 8 9.68889C9.77778 9.68889 13.3333 10.6667 13.3333 12.4444V13.3333H2.66667V12.4444ZM10.6667 5.33333C10.6667 6.04058 10.3857 6.71885 9.88562 7.21895C9.38552 7.71905 8.70724 8 8 8C7.29276 8 6.61448 7.71905 6.11438 7.21895C5.61428 6.71885 5.33333 6.04058 5.33333 5.33333C5.33333 4.62609 5.61428 3.94781 6.11438 3.44772C6.61448 2.94762 7.29276 2.66667 8 2.66667C8.70724 2.66667 9.38552 2.94762 9.88562 3.44772C10.3857 3.94781 10.6667 4.62609 10.6667 5.33333ZM0 1.77778V14.2222C0 14.6937 0.187301 15.1459 0.520699 15.4793C0.854097 15.8127 1.30628 16 1.77778 16H14.2222C14.6937 16 15.1459 15.8127 15.4793 15.4793C15.8127 15.1459 16 14.6937 16 14.2222V1.77778C16 1.30628 15.8127 0.854097 15.4793 0.520699C15.1459 0.187301 14.6937 0 14.2222 0H1.77778C1.30628 0 0.854097 0.187301 0.520699 0.520699C0.187301 0.854097 0 1.30628 0 1.77778Z" fill="white"/>
</svg>
