<svg width="19" height="19" viewBox="0 0 19 19" fill="none" xmlns="http://www.w3.org/2000/svg">
  <style>
    #money-icon .icon-path {
      fill: #1f2937;
      transition: fill 0.3s ease;
    }
    #money-icon:hover .icon-path {
      fill: white;
    }
  </style>
  <g id="money-icon" clip-path="url(#clip0_653_2245)">
    <path class="icon-path" d="M3.06644 18.0634H14.9123C16.9631 18.0634 17.9787 17.0478 17.9787 15.036V3.1121C17.9787 1.10036 16.9631 0.0847168 14.9123 0.0847168H3.06644C1.0254 0.0847168 0 1.09059 0 3.1121V15.036C0 17.0576 1.0254 18.0634 3.06644 18.0634ZM3.08597 16.4912C2.1094 16.4912 1.57229 15.9736 1.57229 14.9579V3.19022C1.57229 2.17459 2.1094 1.657 3.08597 1.657H14.8928C15.8596 1.657 16.4064 2.17459 16.4064 3.19022V14.9579C16.4064 15.9736 15.8596 16.4912 14.8928 16.4912H3.08597Z"/>
    <path class="icon-path" d="M8.99417 14.6356C9.25784 14.6356 9.46293 14.4501 9.46293 14.1766V13.493C10.9767 13.3465 12.1485 12.4676 12.1485 10.993C12.1485 9.66486 11.2892 8.86407 9.58988 8.56133L9.46293 8.53204V5.8074C10.1562 5.93435 10.6445 6.35427 10.8399 7.00858C10.9376 7.30155 11.1231 7.48711 11.4356 7.48711C11.7677 7.48711 12.0118 7.25272 12.0118 6.91092C12.0118 6.81327 11.9825 6.71561 11.963 6.60819C11.7091 5.55349 10.713 4.83082 9.46293 4.68434V4.0105C9.46293 3.73707 9.25784 3.55151 8.99417 3.55151C8.7305 3.55151 8.53519 3.73707 8.53519 4.0105V4.68434C7.05079 4.85036 6.00586 5.7781 6.00586 7.10624C6.00586 8.34649 6.83595 9.08868 8.46683 9.46955L8.53519 9.48908V12.3798C7.65627 12.2528 7.13868 11.7645 6.98243 11.1102C6.87501 10.7782 6.66993 10.6219 6.37695 10.6219C6.04492 10.6219 5.81055 10.8563 5.81055 11.1981C5.81055 11.3055 5.83008 11.4032 5.85938 11.5008C6.13281 12.6239 7.22657 13.3465 8.53519 13.4735V14.1766C8.53519 14.4501 8.7305 14.6356 8.99417 14.6356ZM8.53519 8.2879L8.46683 8.26836C7.58791 8.01445 7.20704 7.62382 7.20704 7.04764C7.20704 6.45194 7.7051 5.95388 8.53519 5.8074V8.2879ZM9.46293 9.72345L9.66801 9.77228C10.6152 10.036 10.9474 10.4364 10.9474 11.0614C10.9474 11.745 10.459 12.2626 9.46293 12.3798V9.72345Z"/>
  </g>
  <defs>
    <clipPath id="clip0_653_2245">
      <rect width="18.34" height="17.9982" fill="white" transform="translate(0 0.0651855)"/>
    </clipPath>
  </defs>
</svg>