<svg width="23" height="20" viewBox="0 0 23 20" fill="none" xmlns="http://www.w3.org/2000/svg">
<g clip-path="url(#clip0_189_5768)">
<path d="M11.8568 19.9219C17.2962 19.9219 21.8177 15.4004 21.8177 9.96094C21.8177 4.51172 17.2962 0 11.8568 0C6.40757 0 1.89585 4.50195 1.89585 9.95117H3.55601C3.55601 5.3418 7.24741 1.66992 11.8568 1.66992C16.4662 1.66992 20.1576 5.35156 20.1576 9.96094C20.1576 14.5703 16.4662 18.2812 11.8568 18.2617C9.07358 18.252 6.63218 16.9043 5.13804 14.8242C4.8353 14.4238 4.37632 14.2969 3.96616 14.541C3.57554 14.7852 3.46811 15.3223 3.80015 15.752C5.65561 18.2422 8.56577 19.9219 11.8568 19.9219ZM0.694677 8.07617C-0.00844806 8.07617 -0.184229 8.55469 0.19663 9.10156L2.38413 12.207C2.7064 12.6562 3.17515 12.6465 3.48765 12.207L5.67515 9.0918C6.04624 8.55469 5.87046 8.07617 5.1771 8.07617H0.694677Z" fill="black" fill-opacity="0.85"/>
<path d="M11.8574 15.5371C12.1211 15.5371 12.3164 15.3516 12.3164 15.0781V14.3945C13.83 14.248 15.0117 13.3691 15.0117 11.8945C15.0117 10.5664 14.1425 9.76562 12.4531 9.46289L12.3164 9.43359V6.70898C13.0097 6.83594 13.498 7.25586 13.6933 7.91016C13.8007 8.20312 13.9765 8.38867 14.2988 8.38867C14.6308 8.38867 14.8652 8.1543 14.8652 7.8125C14.8652 7.71484 14.8457 7.61719 14.8261 7.50977C14.5625 6.45508 13.5664 5.73242 12.3164 5.58594V4.91211C12.3164 4.63867 12.1211 4.45312 11.8574 4.45312C11.5839 4.45312 11.3886 4.63867 11.3886 4.91211V5.58594C9.91407 5.75195 8.85938 6.67969 8.85938 8.00781C8.85938 9.24805 9.69922 9.99024 11.3203 10.3711L11.3886 10.3906V13.2812C10.5097 13.1543 10.0019 12.666 9.83594 12.0117C9.72852 11.6797 9.52344 11.5234 9.24024 11.5234C8.90821 11.5234 8.67383 11.7578 8.67383 12.0996C8.67383 12.207 8.69336 12.3047 8.7129 12.4023C8.9961 13.5254 10.0898 14.248 11.3886 14.375V15.0781C11.3886 15.3516 11.5937 15.5371 11.8574 15.5371ZM11.3886 9.18946L11.3203 9.16992C10.4511 8.91602 10.0605 8.52539 10.0605 7.94922C10.0605 7.35352 10.5683 6.85547 11.3886 6.70898V9.18946ZM12.3164 10.625L12.5312 10.6738C13.4687 10.9375 13.8007 11.3379 13.8007 11.9629C13.8007 12.6465 13.3125 13.1641 12.3164 13.2812V10.625Z" fill="black" fill-opacity="0.85"/>
</g>
<defs>
<clipPath id="clip0_189_5768">
<rect width="22.1804" height="19.9316" fill="white"/>
</clipPath>
</defs>
</svg>
