<svg width="23" height="20" viewBox="0 0 23 20" fill="0443BE" xmlns="http://www.w3.org/2000/svg">
<g clip-path="url(#clip0_904_314)">
<path d="M20.5772 16.9873C20.5772 17.417 20.2256 17.7685 19.7959 17.7685H5.71484L7.29316 16.1963H19.7959C20.2256 16.1963 20.5772 16.5576 20.5772 16.9873Z" fill="#0443BE"/>
<path d="M4.72732 16.8705L15.3914 6.22599L13.6727 4.50724L3.01834 15.1517L2.08084 17.3295C1.99295 17.5638 2.23709 17.8373 2.47146 17.7396L4.72732 16.8705ZM16.241 5.38614L17.2274 4.41935C17.7352 3.9213 17.7645 3.38419 17.3055 2.93497L16.9832 2.60294C16.534 2.16349 15.9969 2.20255 15.5086 2.69083L14.5125 3.66739L16.241 5.38614Z" fill="#0443BE"/>
</g>
<defs>
<clipPath id="clip0_904_314">
<rect width="21.5708" height="18.1761" fill="#0443BE" transform="translate(0.714844 0.912109)"/>
</clipPath>
</defs>
</svg>
