<svg width="17" height="28" viewBox="0 0 17 28" fill="none" xmlns="http://www.w3.org/2000/svg">
<g clip-path="url(#clip0_761_2850)">
<path d="M16.4286 6.92509V21.7323C16.4286 23.7835 15.4226 24.7993 13.4007 24.7993H3.02786C1.00603 24.7993 0 23.7835 0 21.7323V6.92509C0 4.87396 1.00603 3.85815 3.02786 3.85815H3.15718C3.14894 3.93756 3.14507 4.01911 3.14507 4.10234V5.1279C3.14507 5.23188 3.15121 5.33327 3.16533 5.4307H3.10601C2.0902 5.4307 1.57254 5.97766 1.57254 6.94463V21.7128C1.57254 22.6895 2.0902 23.2268 3.10601 23.2268H13.3226C14.3384 23.2268 14.8561 22.6895 14.8561 21.7128V6.94463C14.8561 5.97766 14.3384 5.4307 13.3226 5.4307H13.2633C13.2774 5.33327 13.2835 5.23188 13.2835 5.1279V4.10234C13.2835 4.01911 13.2797 3.93756 13.2715 3.85815H13.4007C15.4226 3.85815 16.4286 4.87396 16.4286 6.92509Z" fill="#1F2937"/>
<path d="M5.1962 6.09485H11.2324C11.7989 6.09485 12.1408 5.73346 12.1408 5.12789V4.10232C12.1408 3.49674 11.7989 3.13536 11.2324 3.13536H10.3338C10.2655 2.03165 9.34731 1.13306 8.2143 1.13306C7.08129 1.13306 6.16317 2.03165 6.09479 3.13536H5.1962C4.6297 3.13536 4.28784 3.49674 4.28784 4.10232V5.12789C4.28784 5.73346 4.6297 6.09485 5.1962 6.09485ZM8.2143 4.06325C7.74547 4.06325 7.36454 3.67257 7.36454 3.2135C7.36454 2.7349 7.74547 2.35398 8.2143 2.35398C8.68313 2.35398 9.06406 2.7349 9.06406 3.2135C9.06406 3.67257 8.68313 4.06325 8.2143 4.06325Z" fill="#1F2937"/>
<path d="M3.90696 18.6652H8.24365C8.57574 18.6652 8.84923 18.3918 8.84923 18.0596C8.84923 17.7275 8.5855 17.4541 8.24365 17.4541H3.90696C3.5651 17.4541 3.29163 17.7275 3.29163 18.0596C3.29163 18.3918 3.57488 18.6652 3.90696 18.6652Z" fill="#1F2937"/>
<path d="M3.90696 15.0125H12.5217C12.8636 15.0125 13.1371 14.7389 13.1371 14.3971C13.1371 14.065 12.8636 13.8013 12.5217 13.8013H3.90696C3.5651 13.8013 3.29163 14.065 3.29163 14.3971C3.29163 14.7389 3.5651 15.0125 3.90696 15.0125Z" fill="#1F2937"/>
<path d="M3.90696 11.5449H12.5217C12.8539 11.5449 13.1371 11.2713 13.1371 10.9393C13.1371 10.6072 12.8539 10.324 12.5217 10.324H3.90696C3.57488 10.324 3.29163 10.6072 3.29163 10.9393C3.29163 11.2713 3.57488 11.5449 3.90696 11.5449Z" fill="#1F2937"/>
</g>
<defs>
<clipPath id="clip0_761_2850">
<rect width="16.79" height="27.0652" fill="white"/>
</clipPath>
</defs>
</svg>
