<svg width="20" height="20" viewBox="0 0 20 20" fill="none" xmlns="http://www.w3.org/2000/svg">
<rect width="20" height="20" rx="4" fill="white"/>
<path d="M12.456 9.4L11.736 10.136C11.16 10.712 10.8 11.2 10.8 12.4H9.2V12C9.2 11.112 9.56 10.312 10.136 9.736L11.128 8.728C11.424 8.44 11.6 8.04 11.6 7.6C11.6 7.17565 11.4314 6.76869 11.1314 6.46863C10.8313 6.16857 10.4243 6 10 6C9.57565 6 9.16869 6.16857 8.86863 6.46863C8.56857 6.76869 8.4 7.17565 8.4 7.6H6.8C6.8 6.75131 7.13714 5.93737 7.73726 5.33726C8.33737 4.73714 9.15131 4.4 10 4.4C10.8487 4.4 11.6626 4.73714 12.2627 5.33726C12.8629 5.93737 13.2 6.75131 13.2 7.6C13.1988 8.27459 12.9315 8.92146 12.456 9.4V9.4ZM10.8 15.6H9.2V14H10.8V15.6ZM10 2C8.94943 2 7.90914 2.20693 6.93853 2.60896C5.96793 3.011 5.08601 3.60028 4.34315 4.34315C2.84285 5.84344 2 7.87827 2 10C2 12.1217 2.84285 14.1566 4.34315 15.6569C5.08601 16.3997 5.96793 16.989 6.93853 17.391C7.90914 17.7931 8.94943 18 10 18C12.1217 18 14.1566 17.1571 15.6569 15.6569C17.1571 14.1566 18 12.1217 18 10C18 5.576 14.4 2 10 2Z" fill="#B5B5B5"/>
</svg>
