<svg width="24" height="24" viewBox="0 0 24 24" fill="none" xmlns="http://www.w3.org/2000/svg">
<path d="M20.2243 9.22642C19.5479 6.28371 17.3432 3.99738 14.5335 3.32481L14.3105 3.27141C12.7987 2.90953 11.2288 2.90953 9.71697 3.27141L9.33586 3.36264C6.62297 4.01204 4.4943 6.21958 3.84121 9.06088L3.75236 9.44741C3.41588 10.9113 3.41588 12.4382 3.75236 13.9021C4.42994 16.8499 6.94114 18.9268 9.8279 18.9268H10.8893C11.2378 18.9268 11.5533 19.1515 11.6858 19.4902C12.1671 20.7208 13.511 21.3248 14.6841 20.8233L14.8022 20.7728C17.5131 19.6138 19.5339 17.1265 20.2209 14.1378C20.5908 12.5287 20.5941 10.8355 20.2243 9.22642Z" stroke="#0443BE" stroke-width="1.5" stroke-linecap="round"/>
<path d="M15.3037 9.05786H9.27204M15.3037 12.514H11.4654" stroke="#0443BE" stroke-width="1.5" stroke-linecap="round"/>
</svg>
