<svg width="21" height="20" viewBox="0 0 21 20" fill="none" xmlns="http://www.w3.org/2000/svg">
<path d="M20.1697 5.42608V12.2623C20.1697 14.8772 18.7418 16.3408 16.0823 16.3408H10.0493L6.82752 19.286C6.40806 19.6787 6.14925 19.8571 5.8012 19.8571C5.2925 19.8571 5.00691 19.4912 5.00691 18.9379V16.3408H4.58746C1.92793 16.3408 0.5 14.8861 0.5 12.2623V5.42608C0.5 2.80226 1.92793 1.33862 4.58746 1.33862H16.0823C18.7418 1.33862 20.1697 2.81118 20.1697 5.42608ZM9.56737 5.26544V8.05883H6.77397C6.3099 8.05883 5.97968 8.38011 5.97968 8.84419C5.97968 9.29932 6.3099 9.60282 6.77397 9.60282H9.56737V12.4051C9.56737 12.8602 9.87975 13.1904 10.326 13.1904C10.7989 13.1904 11.1113 12.8692 11.1113 12.4051V9.60282H13.9136C14.3688 9.60282 14.699 9.29932 14.699 8.84419C14.699 8.38011 14.3777 8.05883 13.9136 8.05883H11.1113V5.26544C11.1113 4.80136 10.7989 4.47115 10.326 4.47115C9.87975 4.47115 9.56737 4.80136 9.56737 5.26544Z" fill="white"/>
</svg>
