<svg width="17" height="22" viewBox="0 0 17 22" fill="none" xmlns="http://www.w3.org/2000/svg">
<path d="M16.4286 3.92509V18.7323C16.4286 20.7835 15.4226 21.7993 13.4007 21.7993H3.02786C1.00603 21.7993 0 20.7835 0 18.7323V3.92509C0 1.87396 1.00603 0.858154 3.02786 0.858154H3.15718C3.14894 0.937558 3.14507 1.01911 3.14507 1.10234V2.1279C3.14507 2.23188 3.15121 2.33327 3.16533 2.4307H3.10601C2.0902 2.4307 1.57254 2.97766 1.57254 3.94463V18.7128C1.57254 19.6895 2.0902 20.2268 3.10601 20.2268H13.3226C14.3384 20.2268 14.8561 19.6895 14.8561 18.7128V3.94463C14.8561 2.97766 14.3384 2.4307 13.3226 2.4307H13.2633C13.2774 2.33327 13.2835 2.23188 13.2835 2.1279V1.10234C13.2835 1.01911 13.2797 0.937558 13.2715 0.858154H13.4007C15.4226 0.858154 16.4286 1.87396 16.4286 3.92509Z" fill="#1F2937"/>
</svg>
